<svg width="426" height="413" viewBox="0 0 426 413" fill="none" xmlns="http://www.w3.org/2000/svg">
<path d="M96.7999 160.573L54.2451 177.201C35.6681 184.46 37.9977 211.46 57.5435 215.43L122.658 228.654C132.613 230.676 139.472 239.84 138.604 249.962L131.533 332.462C129.728 353.513 157.553 362.617 168.542 344.571L207.412 280.737C214.729 268.72 231.838 267.815 240.383 278.992L281.92 333.326C293.536 348.522 317.809 340.307 317.809 321.18V258.114C317.809 252.341 320.304 246.849 324.652 243.051L385.544 189.864C399.46 177.71 390.863 154.801 372.387 154.801H324.376C312.425 154.801 303.141 144.389 304.507 132.517L312.606 62.0752C314.595 44.7744 295.057 33.373 280.973 43.616L219.341 88.4403C211.94 93.823 201.829 93.4956 194.792 87.6455L129.323 33.2212C115.242 21.516 94.14 33.3164 96.7405 51.4415L109.318 139.104C110.637 148.299 105.452 157.192 96.7999 160.573Z" fill="#FFAEED" stroke="#FFAEED" stroke-width="6" stroke-linecap="round"/>
<ellipse cx="213.103" cy="185.088" rx="50.7664" ry="47.1134" fill="#FFF268"/>
</svg>
